<svg xmlns="http://www.w3.org/2000/svg" xmlns:xlink="http://www.w3.org/1999/xlink" width="255.247" height="162.711" viewBox="0 0 255.247 162.711"><g opacity=".2"><defs><path id="a" d="M9.953 104.744h90.334v20.193H9.953z"/></defs><clipPath id="b"><use xlink:href="#a" overflow="visible"/></clipPath><path clip-path="url(#b)" d="M55.12 104.743c-24.945 0-45.167 4.523-45.167 10.095 0 5.576 20.223 10.101 45.167 10.101 24.944 0 45.169-4.524 45.169-10.101 0-5.572-20.225-10.095-45.169-10.095"/></g><path fill="#FFF" d="M55.544 14.694c9.833 0 18.178 6.254 21.337 14.989.022.058.045.116.062.169a21.557 21.557 0 0 1 .608 2.032c.117.468.229.94.316 1.418.049.258.081.515.118.777.061.407.125.814.164 1.229.064.685.103 1.376.107 2.079 7.718 4.961 13.74 12.33 16.999 21.055a13.94 13.94 0 0 1 1.794.177c1.245.211 2.408.591 3.472 1.144.597.311 1.17.68 1.705 1.105 2.408 1.936 3.815 4.821 4.274 8.278 1.007 7.521-2.432 17.759-9.724 26.838-2.016 2.52-4.31 4.156-6.746 5.115a7.47 7.47 0 0 1 1.819 4.895 7.466 7.466 0 0 1-10.121 6.975c-1.039 3.797-4.507 6.592-8.634 6.592-4.952 0-8.962-4.012-8.962-8.958 0-2.223.819-4.249 2.159-5.822a32.551 32.551 0 0 1-6.695 1.503c-1.33.164-2.679.247-4.053.247-1.362 0-2.703-.083-4.025-.237a34.317 34.317 0 0 1-6.627-1.478 8.907 8.907 0 0 1 2.068 5.709c0 4.947-4.012 8.96-8.962 8.96-4.104 0-7.556-2.763-8.616-6.53a7.47 7.47 0 0 1-8.321-11.863c-2.441-.957-4.73-2.597-6.744-5.11-7.34-9.147-10.78-19.462-9.704-26.988.484-3.395 1.882-6.228 4.257-8.128a9.996 9.996 0 0 1 1.738-1.127 11.31 11.31 0 0 1 3.406-1.119 13.62 13.62 0 0 1 1.795-.184 42.981 42.981 0 0 1 17.031-21.138c.002-.674.039-1.34.103-1.998.042-.481.119-.951.192-1.424.032-.19.054-.389.09-.582a22.29 22.29 0 0 1 .348-1.533c.028-.118.058-.239.089-.361.154-.555.327-1.098.519-1.638l.033-.092c3.165-8.728 11.507-14.976 21.331-14.976m0-4.424c-11.341 0-21.566 7.161-25.463 17.824l-.014.031-.067.19a27.37 27.37 0 0 0-.604 1.911l-.09.352a26.873 26.873 0 0 0-.429 1.911c-.032.152-.058.34-.085.525l-.02.135c-.102.63-.181 1.172-.23 1.721a47.69 47.69 0 0 0-15.853 19.495c-1.443.289-2.84.779-4.127 1.452-.863.439-1.71.987-2.479 1.612C2.92 59.962.889 63.75.233 68.371c-1.282 8.968 2.792 20.608 10.635 30.381 1.309 1.633 2.766 3.023 4.352 4.157a11.869 11.869 0 0 0-.405 3.073c0 6.559 5.335 11.894 11.894 11.894h.119c2.43 3.679 6.604 6.034 11.171 6.034 7.312 0 13.273-5.895 13.384-13.181a38.158 38.158 0 0 0 8.326-.004c.068 7.324 6.047 13.261 13.386 13.261 4.608 0 8.799-2.381 11.221-6.105h.07c6.556 0 11.889-5.332 11.889-11.887 0-1.045-.136-2.079-.403-3.075 1.593-1.139 3.052-2.533 4.361-4.17 7.885-9.82 11.87-21.107 10.654-30.19-.622-4.686-2.658-8.539-5.887-11.138a15.611 15.611 0 0 0-2.432-1.58 16.066 16.066 0 0 0-4.198-1.474 47.688 47.688 0 0 0-15.809-19.401l-.006-.076c-.039-.421-.101-.85-.163-1.282l-.027-.17-.03-.222a16.337 16.337 0 0 0-.117-.72 24.681 24.681 0 0 0-.369-1.672 28.562 28.562 0 0 0-.154-.598 27.19 27.19 0 0 0-.576-1.841 4.69 4.69 0 0 0-.101-.271C77.124 17.438 66.894 10.27 55.544 10.27"/><path fill="#C99E49" d="M14.013 58.619a11.283 11.283 0 0 0-3.403 1.119c-.618.315-1.2.689-1.741 1.127-2.375 1.902-3.773 4.733-4.257 8.127-1.077 7.528 2.363 17.842 9.706 26.987 2.014 2.514 4.305 4.153 6.744 5.112a7.471 7.471 0 0 0 5.646 12.359 7.475 7.475 0 0 0 7.47-7.469 7.389 7.389 0 0 0-1.469-4.442c7.217-1.719 6.492-6.292 10.495-9.506L41.97 73.791c-8.586-10.707-19.896-16.537-27.957-15.172M106.502 69.145c-.459-3.458-1.869-6.34-4.277-8.277a10.697 10.697 0 0 0-1.705-1.106 11.74 11.74 0 0 0-3.471-1.144c-8.059-1.347-19.348 4.485-27.93 15.177L67.887 92.04c4 3.213 3.278 7.788 10.495 9.502a7.454 7.454 0 0 0-1.469 4.452 7.472 7.472 0 0 0 7.473 7.465 7.468 7.468 0 0 0 5.644-12.357c2.437-.963 4.732-2.596 6.746-5.116 7.291-9.08 10.733-19.32 9.726-26.841"/><path fill="#C99E49" d="M83.572 53.525a34.854 34.854 0 0 0-2.806-3.576c-6.21-6.899-15.206-11.243-25.222-11.243-10.01 0-19.01 4.343-25.215 11.243a34.066 34.066 0 0 0-2.791 3.552 33.744 33.744 0 0 0-5.904 19.118 33.807 33.807 0 0 0 4.422 16.758 34.166 34.166 0 0 0 10.691 11.468 33.814 33.814 0 0 0 14.771 5.447c1.325.154 2.664.239 4.026.239 1.374 0 2.723-.085 4.053-.248a33.654 33.654 0 0 0 14.771-5.458 34.098 34.098 0 0 0 10.668-11.449 33.82 33.82 0 0 0 4.424-16.758 33.736 33.736 0 0 0-5.888-19.093"/><path fill="#A07A38" d="M55.544 95.794c-1.757 0-3.186.801-3.186 1.788 0 .068.009.128.018.191.175.899 1.524 1.593 3.168 1.593s2.999-.694 3.173-1.593c.008-.063.015-.123.015-.191.001-.987-1.426-1.788-3.188-1.788"/><path fill="#187AA0" d="M56.466 103.401c-6.69 0-13.015-.651-18.632-1.803a33.581 33.581 0 0 0 13.682 4.755c1.322.158 2.665.244 4.028.244a35.64 35.64 0 0 0 4.053-.244 33.834 33.834 0 0 0 12.809-4.25c-4.914.833-10.297 1.298-15.94 1.298"/><path fill="#EAC664" d="M55.912 30.611l.06-.089c-23.657 0-42.836 19.177-42.836 42.838 0 12.932 5.741 24.535 14.808 32.382.004.01.006.012.011.016.922.846 1.552 1.555 1.356 2.576v.002a8.96 8.96 0 0 0 8.688 11.148c4.95 0 8.962-4.012 8.962-8.959a8.94 8.94 0 0 0-2.354-6.051l-.004-.002c-.555-.667-.993-1.217-.993-2.067V48.35l4.832-6.971H62.6l4.887 7.054v54.048c0 .854-.438 1.402-.995 2.068 0 .002-.002.002-.002.002a8.946 8.946 0 0 0-2.354 6.051c0 4.946 4.01 8.958 8.963 8.958 4.948 0 8.956-4.012 8.956-8.958a8.99 8.99 0 0 0-.267-2.186v-.011c-.199-1.021.43-1.714 1.354-2.572 0-.002.006-.004.009-.011 9.072-7.852 14.81-19.45 14.81-32.389-.003-23.391-18.758-42.404-42.049-42.822"/><path fill="#EFD081" d="M78.259 37.464c0 12.542-10.166 22.708-22.713 22.708-12.545 0-22.711-10.166-22.711-22.708 0-12.541 10.166-22.707 22.711-22.707 12.547.001 22.713 10.167 22.713 22.707"/><g opacity=".2"><defs><path id="c" d="M154.095 104.744h90.338v20.193h-90.338z"/></defs><clipPath id="d"><use xlink:href="#c" overflow="visible"/></clipPath><path clip-path="url(#d)" d="M199.262 104.743c-24.942 0-45.167 4.523-45.167 10.095 0 5.576 20.225 10.101 45.167 10.101 24.948 0 45.174-4.524 45.174-10.101 0-5.572-20.226-10.095-45.174-10.095"/></g><path fill="#C99E49" d="M158.158 58.619a11.357 11.357 0 0 0-3.406 1.119c-.615.315-1.195.689-1.743 1.127-2.37 1.902-3.771 4.733-4.253 8.127-1.076 7.528 2.366 17.842 9.701 26.987 2.021 2.514 4.309 4.153 6.749 5.112a7.471 7.471 0 0 0 5.649 12.359 7.477 7.477 0 0 0 7.47-7.469 7.398 7.398 0 0 0-1.473-4.442c7.221-1.719 6.493-6.292 10.497-9.506l-1.235-18.243c-8.587-10.706-19.895-16.536-27.956-15.171M250.647 69.145c-.463-3.458-1.868-6.34-4.276-8.277a10.742 10.742 0 0 0-1.705-1.106 11.769 11.769 0 0 0-3.474-1.144c-8.059-1.347-19.348 4.485-27.93 15.177L212.03 92.04c4.004 3.213 3.278 7.788 10.497 9.502a7.442 7.442 0 0 0-.953 7.166 7.464 7.464 0 0 0 6.955 4.751c4.124 0 7.47-3.346 7.47-7.465a7.463 7.463 0 0 0-1.823-4.892c2.437-.963 4.729-2.596 6.746-5.116 7.293-9.08 10.733-19.32 9.725-26.841"/><path fill="#C99E49" d="M227.72 53.525a35.151 35.151 0 0 0-2.808-3.576c-6.208-6.899-15.208-11.243-25.218-11.243-10.017 0-19.017 4.343-25.225 11.243a34.173 34.173 0 0 0-2.788 3.552 33.756 33.756 0 0 0-5.901 19.118 33.797 33.797 0 0 0 4.422 16.758 34.208 34.208 0 0 0 10.688 11.468 33.804 33.804 0 0 0 14.772 5.447c1.319.154 2.664.239 4.031.239a33.23 33.23 0 0 0 4.048-.248 33.681 33.681 0 0 0 14.772-5.458 34.112 34.112 0 0 0 10.666-11.449 33.786 33.786 0 0 0 4.422-16.758 33.745 33.745 0 0 0-5.881-19.093"/><path fill="#A07A38" d="M199.693 95.794c-1.764 0-3.187.801-3.187 1.788 0 .068.005.128.016.191.17.899 1.526 1.593 3.171 1.593 1.642 0 2.996-.694 3.169-1.593a1.08 1.08 0 0 0 .015-.191c0-.987-1.425-1.788-3.184-1.788"/><path fill="#FFF" d="M199.693 7.327a5.782 5.782 0 0 1 5.31 8.06c9.955 2.383 17.36 11.321 17.394 22 7.723 4.961 13.745 12.33 17.006 21.055.61.023 1.212.079 1.789.177 1.245.211 2.408.591 3.474 1.144.599.311 1.173.68 1.705 1.105 2.408 1.936 3.813 4.821 4.276 8.278 1.006 7.521-2.433 17.759-9.726 26.838-2.017 2.52-4.31 4.156-6.746 5.115a7.473 7.473 0 0 1 1.823 4.895c0 4.118-3.346 7.463-7.471 7.463a7.36 7.36 0 0 1-2.656-.488c-1.042 3.797-4.502 6.592-8.635 6.592a8.957 8.957 0 0 1-8.958-8.958c0-2.223.819-4.249 2.159-5.822a32.696 32.696 0 0 1-6.697 1.504 33.23 33.23 0 0 1-4.048.246c-1.365 0-2.712-.083-4.031-.237a34.208 34.208 0 0 1-6.626-1.478 8.918 8.918 0 0 1 2.068 5.709c0 4.947-4.012 8.96-8.963 8.96-4.104 0-7.553-2.763-8.614-6.53a7.47 7.47 0 0 1-8.322-11.863c-2.44-.957-4.728-2.597-6.749-5.11-7.335-9.147-10.777-19.462-9.701-26.988.482-3.395 1.883-6.228 4.253-8.128a10.229 10.229 0 0 1 1.743-1.127 11.357 11.357 0 0 1 3.406-1.119 13.566 13.566 0 0 1 1.796-.184 42.95 42.95 0 0 1 17.032-21.138c.073-10.64 7.461-19.529 17.393-21.91a5.733 5.733 0 0 1-.466-2.282 5.782 5.782 0 0 1 5.782-5.779m0-4.424c-5.359 0-9.767 4.148-10.173 9.403a27.048 27.048 0 0 0-16.837 22.566 47.638 47.638 0 0 0-15.848 19.493 15.623 15.623 0 0 0-4.125 1.448c-.854.436-1.691.978-2.466 1.595-3.186 2.56-5.214 6.348-5.87 10.962-1.28 8.963 2.793 20.604 10.631 30.378 1.314 1.636 2.773 3.028 4.36 4.162a11.76 11.76 0 0 0-.405 3.07c0 6.559 5.335 11.894 11.894 11.894h.119c2.43 3.681 6.603 6.034 11.168 6.034 7.313 0 13.275-5.895 13.385-13.181a38.145 38.145 0 0 0 8.331-.004c.065 7.324 6.042 13.261 13.38 13.261 4.604 0 8.797-2.381 11.221-6.105h.07c6.558 0 11.895-5.332 11.895-11.887 0-1.045-.139-2.079-.405-3.077 1.591-1.139 3.05-2.531 4.359-4.168 7.886-9.82 11.871-21.109 10.654-30.19-.627-4.692-2.663-8.543-5.888-11.138a15.113 15.113 0 0 0-2.436-1.582 16.035 16.035 0 0 0-4.193-1.47 47.705 47.705 0 0 0-15.808-19.399 27.014 27.014 0 0 0-16.846-22.664c-.408-5.252-4.812-9.401-10.167-9.401"/><path fill="#187AA0" d="M200.608 103.401c-6.691 0-13.012-.651-18.632-1.803a33.59 33.59 0 0 0 13.683 4.755 33.91 33.91 0 0 0 4.027.244c1.377 0 2.722-.092 4.055-.244a33.878 33.878 0 0 0 12.812-4.25c-4.921.833-10.3 1.298-15.945 1.298"/><path fill="#EAC664" d="M200.055 30.611l.061-.089c-23.657 0-42.838 19.177-42.838 42.838 0 12.932 5.743 24.535 14.81 32.382.009.01.009.012.011.016.923.846 1.554 1.555 1.354 2.576v.002a9.182 9.182 0 0 0-.266 2.189 8.96 8.96 0 1 0 15.565-6.051l-.004-.002c-.558-.667-.994-1.217-.994-2.067V48.35l4.829-6.971h14.161l4.887 7.054v54.048c0 .854-.442 1.402-.993 2.068l-.003.002a8.922 8.922 0 0 0-2.354 6.051 8.956 8.956 0 0 0 8.957 8.958 8.96 8.96 0 0 0 8.689-11.144v-.011c-.192-1.021.432-1.714 1.354-2.572.007-.002.012-.004.012-.011 9.072-7.852 14.813-19.45 14.813-32.389-.002-23.391-18.755-42.404-42.051-42.822"/><path fill="#222" d="M205.47 13.105a5.779 5.779 0 1 1-11.557 0 5.78 5.78 0 0 1 11.557 0"/><path fill="#EFD081" d="M222.404 37.464c0 12.542-10.171 22.708-22.711 22.708-12.545 0-22.714-10.166-22.714-22.708 0-12.541 10.169-22.707 22.714-22.707 12.54.001 22.711 10.167 22.711 22.707"/><path fill="#FFF" d="M193.443 49.712c.745-2.757 3.254-4.798 6.25-4.798 2.989 0 5.505 2.041 6.245 4.798h-12.495z"/><path fill="#222" d="M186.261 41.588a1.9 1.9 0 0 1 1.896-1.898c1.042 0 1.888.854 1.888 1.898h-3.784zM209.333 41.588c0-1.044.848-1.898 1.894-1.898 1.047 0 1.895.854 1.895 1.898h-3.789z"/><g opacity=".2"><defs><path id="e" d="M66.824 135.789h120.454v26.922H66.824z"/></defs><clipPath id="f"><use xlink:href="#e" overflow="visible"/></clipPath><path clip-path="url(#f)" d="M127.052 135.788c-33.267 0-60.23 6.026-60.23 13.463 0 7.431 26.963 13.462 60.23 13.462 33.26 0 60.228-6.031 60.228-13.462-.001-7.438-26.968-13.463-60.228-13.463"/></g><path fill="#C99E49" d="M72.244 74.285c-1.625.273-3.149.767-4.545 1.491-.816.42-1.593.92-2.32 1.505-3.167 2.541-5.026 6.313-5.673 10.84-1.431 10.039 3.155 23.79 12.938 35.979 2.688 3.349 5.748 5.535 8.996 6.822a9.906 9.906 0 0 0-2.43 6.515 9.956 9.956 0 0 0 9.96 9.96c4.252 0 7.884-2.67 9.308-6.432a9.872 9.872 0 0 0 .649-3.528 9.908 9.908 0 0 0-1.958-5.929c9.624-2.283 8.657-8.382 13.997-12.669l-1.648-24.327C98.065 80.244 82.984 72.466 72.244 74.285M195.559 88.322c-.617-4.61-2.49-8.46-5.701-11.033a14.52 14.52 0 0 0-2.274-1.483 15.62 15.62 0 0 0-4.623-1.522c-10.744-1.795-25.802 5.981-37.241 20.239l-1.649 24.327c5.337 4.284 4.374 10.381 13.997 12.666a9.885 9.885 0 0 0-1.96 5.926c0 1.28.246 2.503.687 3.63a9.956 9.956 0 0 0 9.274 6.334c5.503 0 9.959-4.462 9.959-9.964a9.916 9.916 0 0 0-2.428-6.508c3.249-1.294 6.304-3.47 8.995-6.825 9.718-12.113 14.306-25.759 12.964-35.787"/><path fill="#C99E49" d="M164.985 67.495a45.508 45.508 0 0 0-3.743-4.767c-8.276-9.197-20.274-14.985-33.625-14.985-13.35 0-25.349 5.789-33.625 14.992a45.126 45.126 0 0 0-3.722 4.724 45.052 45.052 0 0 0-7.867 25.497c0 8.124 2.144 15.75 5.9 22.34a45.406 45.406 0 0 0 14.252 15.284 44.929 44.929 0 0 0 19.69 7.269c1.764.204 3.554.322 5.371.322 1.829 0 3.63-.118 5.402-.327a45.086 45.086 0 0 0 19.698-7.281 45.503 45.503 0 0 0 14.221-15.267 45.013 45.013 0 0 0 5.894-22.34 45.003 45.003 0 0 0-7.846-25.461"/><path fill="#A07A38" d="M127.618 123.854c-2.345 0-4.247 1.068-4.247 2.381 0 .081.009.173.025.256.225 1.194 2.029 2.125 4.222 2.125 2.195 0 3.999-.931 4.228-2.125.013-.083.02-.175.02-.256-.001-1.313-1.901-2.381-4.248-2.381"/><path fill="#FFF" d="M127.618 5.898a7.708 7.708 0 0 1 7.083 10.746c13.273 3.182 23.145 15.094 23.195 29.328 10.293 6.62 18.325 16.45 22.675 28.082.81.023 1.616.104 2.388.23 1.654.278 3.205.781 4.625 1.52.799.425 1.562.916 2.274 1.486 3.211 2.571 5.084 6.422 5.701 11.031 1.343 10.028-3.244 23.671-12.966 35.785-2.688 3.354-5.744 5.535-8.996 6.825a9.909 9.909 0 0 1 2.431 6.51c0 5.502-4.455 9.965-9.958 9.965a9.887 9.887 0 0 1-3.542-.656c-1.388 5.063-6.006 8.792-11.514 8.792-6.6 0-11.945-5.352-11.945-11.949 0-2.963 1.089-5.665 2.877-7.754a45.174 45.174 0 0 1-8.926 2.005 46.75 46.75 0 0 1-5.402.325 47.36 47.36 0 0 1-5.371-.32 45.278 45.278 0 0 1-8.837-1.97 11.867 11.867 0 0 1 2.762 7.609c0 6.599-5.351 11.949-11.95 11.949-5.471 0-10.077-3.686-11.491-8.705a9.956 9.956 0 0 1-3.561.666 9.956 9.956 0 0 1-9.959-9.961c0-2.493.917-4.772 2.43-6.517-3.252-1.284-6.308-3.47-8.996-6.82-9.784-12.19-14.368-25.94-12.939-35.979.645-4.527 2.506-8.302 5.673-10.839a13.477 13.477 0 0 1 2.321-1.507c1.396-.723 2.919-1.217 4.544-1.491a17.879 17.879 0 0 1 2.391-.239c4.339-11.678 12.381-21.549 22.709-28.186.101-14.187 9.953-26.044 23.192-29.215a7.703 7.703 0 0 1-.622-3.041 7.703 7.703 0 0 1 7.704-7.705m0-5.898c-7.141 0-13.015 5.532-13.563 12.536a36.076 36.076 0 0 0-22.449 30.089c-9.215 6.591-16.576 15.649-21.132 25.99a21.06 21.06 0 0 0-5.486 1.922 19.477 19.477 0 0 0-3.308 2.148c-4.229 3.395-6.935 8.445-7.814 14.604-1.705 11.966 3.728 27.487 14.178 40.504 1.748 2.178 3.688 4.031 5.808 5.545a15.828 15.828 0 0 0-.54 4.1c0 8.746 7.114 15.859 15.859 15.859h.158c3.24 4.905 8.808 8.041 14.894 8.041 9.75 0 17.699-7.859 17.846-17.573 1.931.206 3.744.304 5.55.304 1.797 0 3.664-.103 5.552-.304.092 9.763 8.061 17.678 17.844 17.678 6.141 0 11.731-3.171 14.96-8.137h.096c8.743 0 15.857-7.115 15.857-15.863a15.79 15.79 0 0 0-.54-4.095c2.122-1.517 4.064-3.372 5.81-5.55 10.518-13.106 15.831-28.156 14.21-40.257-.841-6.271-3.559-11.406-7.861-14.855a20.585 20.585 0 0 0-3.195-2.09 21.423 21.423 0 0 0-5.633-1.982c-4.556-10.285-11.897-19.296-21.073-25.865a36.059 36.059 0 0 0-22.458-30.212C140.639 5.532 134.763 0 127.618 0"/><path fill="#187AA0" d="M128.843 133.994c-8.917 0-17.352-.866-24.842-2.401a45.028 45.028 0 0 0 18.244 6.338 44.874 44.874 0 0 0 10.776-.008 44.913 44.913 0 0 0 17.078-5.659c-6.559 1.116-13.731 1.73-21.256 1.73"/><path fill="#EAC664" d="M128.103 36.939l.081-.118c-31.544 0-57.112 25.575-57.112 57.115 0 17.249 7.653 32.714 19.743 43.18.002.011.009.013.013.02 1.231 1.14 2.071 2.069 1.809 3.431v.011a11.912 11.912 0 0 0-.361 2.912c0 6.599 5.347 11.95 11.948 11.95 6.597 0 11.947-5.351 11.947-11.95a11.9 11.9 0 0 0-3.139-8.062c-.005-.002-.005-.002-.008-.007-.742-.887-1.324-1.618-1.324-2.758V60.598l6.445-9.296h18.878l6.514 9.403v72.055c0 1.145-.584 1.872-1.328 2.763 0 0-.002.002-.002.009a11.87 11.87 0 0 0-3.139 8.062c0 6.597 5.349 11.949 11.945 11.949 6.602 0 11.951-5.353 11.951-11.949 0-1.01-.13-1.985-.363-2.912 0-.002-.002-.002-.002-.013-.258-1.358.575-2.292 1.808-3.428a.058.058 0 0 1 .016-.021c12.093-10.47 19.743-25.931 19.743-43.188-.001-31.178-25.005-56.531-56.063-57.093"/><path fill="#896F00" d="M135.328 13.604a7.71 7.71 0 0 1-15.417 0 7.705 7.705 0 0 1 7.708-7.704 7.707 7.707 0 0 1 7.709 7.704"/><path fill="#EFD081" d="M157.899 46.078c0 16.728-13.555 30.282-30.282 30.282-16.722 0-30.281-13.555-30.281-30.282 0-16.718 13.559-30.272 30.281-30.272 16.727 0 30.282 13.554 30.282 30.272"/><path fill="#FFF" d="M119.291 56.021c.989 3.674 4.339 6.384 8.33 6.384 3.989 0 7.337-2.71 8.324-6.384h-16.654z"/><path fill="#222" d="M109.712 51.576a2.525 2.525 0 0 1 5.048 0h-5.048zM140.473 51.576a2.527 2.527 0 0 1 2.524-2.524 2.527 2.527 0 0 1 2.526 2.524h-5.05z"/><path fill="#FFF" d="M58.951 49.004a3.405 3.405 0 1 1-3.403-3.406 3.405 3.405 0 0 1 3.403 3.406"/><path fill="#222" d="M68.605 41.575v-.009a1.522 1.522 0 0 0-3.045 0v.002l-.002.018h.002a1.523 1.523 0 0 0 3.045 0v-.011zM45.535 41.579l.002-.013h-.002a1.524 1.524 0 0 0-1.524-1.504c-.837 0-1.51.672-1.519 1.504h-.004l.002.009c0 .002-.002.004-.002.011h.004c.008.83.682 1.501 1.519 1.501.835 0 1.516-.671 1.524-1.501v-.007zM201.83 59.115l-2.154 5.114-2.156-5.114z"/></svg>